<svg width="88" height="88" viewBox="0 0 88 88" fill="none" xmlns="http://www.w3.org/2000/svg">
<g filter="url(#filter0_d_61385:227)">
<path d="M52.3824 29.565L49.4993 29.1452C49.4109 29.1452 49.3225 29.1452 49.3225 29.2334L48.1019 30.7994C48.0322 30.9015 48.0009 31.0249 48.0135 31.1478C48.0135 31.236 47.9251 31.4123 47.841 31.3242L46.8771 31.0639C46.7045 31.0639 46.5278 31.0639 46.4562 31.236L42.5251 36.274C42.4367 36.3622 42.3483 36.3622 42.1757 36.3622L40.69 35.6653C40.6269 35.6258 40.554 35.6048 40.4795 35.6048C40.4051 35.6048 40.3321 35.6258 40.2691 35.6653L39.4441 36.1943C39.3815 36.2348 39.3084 36.2563 39.2337 36.2563C39.159 36.2563 39.0859 36.2348 39.0233 36.1943L38.6739 36.0221C38.617 35.9965 38.5554 35.9829 38.493 35.9823C38.4306 35.9817 38.3688 35.994 38.3114 36.0185C38.254 36.0429 38.2023 36.079 38.1597 36.1245C38.117 36.1699 38.0843 36.2237 38.0636 36.2824L37.7985 37.5C37.767 37.6293 37.7755 37.765 37.8228 37.8894C37.8701 38.0138 37.9541 38.121 38.0636 38.1969L38.7623 38.6167L40.5932 39.7503L41.4686 40.2709C41.5915 40.3429 41.7344 40.3736 41.8761 40.3584C42.0178 40.3433 42.1508 40.2832 42.2557 40.1869L43.7373 38.877C43.8648 38.8046 44.0124 38.7751 44.1581 38.7931L44.579 39.0534C44.7516 39.1415 44.9284 39.1415 44.9999 38.9652L45.7828 38.2683C45.8367 38.2142 45.9052 38.177 45.98 38.1614C46.0548 38.1457 46.1326 38.1522 46.2037 38.1801L47.3401 38.7049C47.4277 38.7336 47.521 38.7405 47.612 38.7251C47.7029 38.7098 47.7887 38.6726 47.862 38.6167L48.3881 37.9198L52.3192 32.8818C52.4918 32.6173 52.4034 32.2688 52.0541 32.2688L51.2291 32.0841C51.0524 32.0841 50.9682 31.8238 51.0524 31.6642L52.4497 30.0101C52.6433 29.8337 52.5549 29.565 52.3824 29.565Z" fill="white"/>
<path d="M39.28 39.7671C39.1916 39.6789 39.1074 39.7671 39.1074 39.8553L39.5283 40.9846V41.2491L39.179 42.727C39.173 42.7748 39.1778 42.8234 39.1931 42.8692C39.2084 42.915 39.2338 42.9567 39.2674 42.9915L40.3154 43.7724C40.3637 43.8146 40.4258 43.8379 40.49 43.8379C40.5543 43.8379 40.6164 43.8146 40.6647 43.7724L41.8011 42.8151C41.8351 42.7817 41.8763 42.7564 41.9215 42.7411C41.9667 42.7259 42.0147 42.721 42.0621 42.727L43.2869 42.5548C43.3711 42.5548 43.3711 42.4667 43.2869 42.3785L39.28 39.7671Z" fill="white"/>
<path d="M38.9306 43.5119C38.9158 43.4911 38.8962 43.4741 38.8735 43.4624C38.8508 43.4507 38.8257 43.4446 38.8001 43.4446C38.7746 43.4446 38.7494 43.4507 38.7267 43.4624C38.704 43.4741 38.6844 43.4911 38.6696 43.5119L37.7942 43.9317C37.7827 43.9317 37.7714 43.934 37.761 43.9385C37.7505 43.943 37.741 43.9495 37.7331 43.9578C37.7252 43.966 37.7191 43.9758 37.7151 43.9865C37.7112 43.9972 37.7094 44.0085 37.71 44.0199L35.7865 48.7221H35.8749L36.2958 48.5499V48.6339L34.8984 50.901C34.8984 50.9892 34.8984 50.9892 34.9826 50.9892L39.8734 46.0225C39.9618 46.0225 39.9618 45.9344 39.9618 45.8462L40.0502 44.5405C40.0502 44.4523 40.0502 44.3684 39.9618 44.3684L38.9306 43.5119Z" fill="white"/>
<path d="M33.9976 80.0001L32.0615 76.3853L35.4287 74.0552L36.0768 74.9578L35.012 75.6757C34.8301 75.8062 34.6403 75.9254 34.4438 76.0326C34.2661 76.1334 34.0803 76.2191 33.8882 76.2887L37.5079 77.162L37.2595 78.1864L33.6315 77.3089C33.7267 77.4065 33.8153 77.5102 33.8966 77.6196C33.9766 77.7246 34.0523 77.8379 34.1281 77.9597L34.3596 78.3795L34.9741 79.5047L33.9976 80.0001Z" fill="#FFCD1E"/>
<path d="M18.1385 66.1875C18.7152 65.5283 19.6327 65.4611 20.4534 66.1875L22.137 67.6611L18.7699 71.4942L17.4314 70.2893C16.556 69.5252 16.2361 68.7233 16.8506 68.0179C16.983 67.8522 17.1613 67.7289 17.3633 67.6632C17.5652 67.5976 17.7821 67.5924 17.987 67.6485C17.8359 67.4261 17.7683 67.1577 17.796 66.8904C17.8237 66.6232 17.945 66.3743 18.1385 66.1875ZM19.3423 69.3866L18.6604 68.7946C18.2395 68.421 17.8776 68.316 17.6587 68.5679C17.4398 68.8198 17.5914 69.1515 18.0249 69.5252L18.7025 70.1171L19.3423 69.3866ZM18.7951 66.9012C18.4963 67.2454 18.6562 67.6653 19.1276 68.0767L19.9021 68.7485L20.7817 67.7451L20.0073 67.0733C19.5359 66.6619 19.0982 66.5527 18.7951 66.9012Z" fill="white"/>
<path d="M10.554 62.686L12.8773 60.9227C13.9464 60.1082 15.1712 60.125 15.9582 61.1536C16.7453 62.1822 16.4338 63.3662 15.3648 64.1765L13.0414 65.9398L12.4564 65.1757L14.8723 63.3368C15.0027 63.2576 15.115 63.152 15.2019 63.0268C15.2888 62.9015 15.3484 62.7595 15.3767 62.6099C15.4051 62.4602 15.4016 62.3063 15.3666 62.1581C15.3315 62.0098 15.2656 61.8706 15.1731 61.7494C15.0806 61.6282 14.9637 61.5277 14.8298 61.4545C14.6959 61.3813 14.5481 61.3369 14.396 61.3243C14.2438 61.3116 14.0907 61.331 13.9466 61.3812C13.8024 61.4314 13.6704 61.5112 13.5591 61.6155L11.139 63.4502L10.554 62.686Z" fill="white"/>
<path d="M12.949 56.7536L8.43704 59.1257L7.98669 58.286L12.5071 55.9013L12.949 56.7536Z" fill="white"/>
<path d="M9.17336 50.2587L10.0909 49.9438L11.0758 52.7861L6.24816 54.4655L5.9325 53.5545L9.83838 52.211L9.17336 50.2587Z" fill="white"/>
<path d="M6.19362 42.9537C7.59098 42.7606 8.84945 43.5625 9.08094 45.2376L9.31244 46.917L4.26173 47.6097L4.03444 45.9303C3.79874 44.209 4.80047 43.1426 6.19362 42.9537ZM6.3241 43.9067C6.11939 43.9251 5.92061 43.985 5.73997 44.0827C5.55934 44.1805 5.40066 44.3142 5.27371 44.4754C5.14677 44.6366 5.05424 44.8221 5.00181 45.0203C4.94937 45.2185 4.93815 45.4253 4.96882 45.6281L5.08667 46.5097L8.21811 46.0899L8.09605 45.2124C8.07113 45.009 8.005 44.8128 7.9017 44.6357C7.79839 44.4586 7.66006 44.3043 7.49511 44.1822C7.33017 44.0601 7.14204 43.9727 6.94218 43.9253C6.74232 43.878 6.53489 43.8716 6.33251 43.9067H6.3241Z" fill="white"/>
<path d="M4.73726 30.4046L5.69268 30.5935L5.43173 31.895L9.48493 32.7011L9.29552 33.6457L5.24232 32.8397L4.98137 34.137L4.03015 33.948L4.73726 30.4046Z" fill="white"/>
<path d="M7.52347 22.684L12.229 24.653L11.8545 25.5431L9.94781 24.7454L9.10603 26.7438L11.0127 27.5415L10.6381 28.4274L5.9325 26.4583L6.30708 25.5683L8.20952 26.366L9.05131 24.3675L7.14887 23.5698L7.52347 22.684Z" fill="white"/>
<path d="M11.0001 18.6492L11.905 19.2622L12.9194 17.7675L13.7233 18.3091L12.709 19.8037L13.6139 20.4167L14.8345 18.624L15.6384 19.1656L13.8748 21.756L9.66589 18.9011L11.4252 16.3107L12.2291 16.8565L11.0001 18.6492Z" fill="white"/>
<path d="M21.1733 13.3046L18.0503 9.27841L20.5336 7.36395L21.127 8.12806L19.4098 9.45474L20.0832 10.3196L21.5142 9.21123L22.1119 9.97954L20.6724 11.0921L21.9351 12.7211L21.1733 13.3046Z" fill="white"/>
<path d="M27.5708 3.36703L28.8797 5.96583C29.4816 7.16237 29.2417 8.3589 28.0843 8.94248C26.9268 9.52605 25.8156 9.00126 25.2138 7.80052L23.9048 5.21432L24.7676 4.79448L26.1313 7.49824C26.1965 7.62587 26.2863 7.73944 26.3955 7.83246C26.5048 7.92549 26.6313 7.99614 26.7679 8.04039C26.9045 8.08464 27.0485 8.10162 27.1916 8.09035C27.3348 8.07909 27.4744 8.03981 27.6023 7.97475C27.7303 7.90969 27.8441 7.82013 27.9374 7.71118C28.0307 7.60223 28.1015 7.47603 28.1458 7.33978C28.1902 7.20352 28.2072 7.05988 28.1959 6.91707C28.1847 6.77425 28.1453 6.63506 28.08 6.50742L26.7164 3.79947L27.5708 3.36703Z" fill="white"/>
<path d="M34.8144 0.990875L35.0711 1.92291L33.8084 2.27558L34.9069 6.25144L33.9726 6.50334L32.8782 2.53168L31.6156 2.88434L31.3546 1.94811L34.8144 0.990875Z" fill="white"/>
<path d="M42.8619 0L43.0724 2.90108C43.1692 4.23616 42.4831 5.24797 41.191 5.34033C39.8989 5.4327 39.0865 4.53005 38.9813 3.19076L38.7709 0.293885L39.7347 0.222513L39.9494 3.24534C39.9421 3.39945 39.9676 3.55335 40.0243 3.69689C40.081 3.84044 40.1675 3.97036 40.2782 4.07811C40.3889 4.18586 40.5213 4.26897 40.6665 4.32198C40.8118 4.37498 40.9666 4.39667 41.1209 4.38562C41.2752 4.37456 41.4253 4.33101 41.5615 4.25784C41.6977 4.18467 41.8167 4.08353 41.9108 3.96111C42.005 3.83869 42.072 3.69775 42.1075 3.5476C42.1431 3.39745 42.1463 3.24149 42.117 3.09L41.8981 0.0671739L42.8619 0Z" fill="white"/>
<path d="M49.1247 5.52967L48.2114 3.69918L47.6347 3.62781L47.4201 5.30716L46.4604 5.18121L47.1128 0.143158L48.91 0.37407C50.219 0.542005 50.7325 1.3271 50.5936 2.30532C50.5531 2.66175 50.3993 2.99589 50.1547 3.2588C49.9101 3.52171 49.5875 3.69958 49.2341 3.76636L50.2779 5.68501L49.1247 5.52967ZM47.761 2.66638L48.7206 2.78813C48.8222 2.81015 48.9271 2.81168 49.0292 2.79263C49.1313 2.77358 49.2286 2.73433 49.3152 2.67721C49.4019 2.62009 49.4763 2.54625 49.5339 2.46002C49.5915 2.3738 49.6313 2.27695 49.6508 2.17517C49.664 2.06992 49.6545 1.96308 49.623 1.86176C49.5916 1.76044 49.5389 1.66696 49.4684 1.58754C49.3979 1.50811 49.3113 1.44456 49.2143 1.4011C49.1173 1.35764 49.0122 1.33528 48.9058 1.3355L47.9462 1.21374L47.761 2.66638Z" fill="white"/>
<path d="M55.4928 2.7961L55.1519 3.8331L56.8692 4.39988L56.5661 5.31932L54.8489 4.75254L54.508 5.78954L56.5703 6.46967L56.2799 7.38912L53.3042 6.4067L54.8994 1.57437L57.8793 2.55259L57.5763 3.47623L55.4928 2.7961Z" fill="white"/>
<path d="M69.0329 7.64127L69.3107 11.7305L65.2659 12.4694L65.0471 11.3736L66.3097 11.1553C66.5412 11.1133 66.7643 11.0797 66.9748 11.0629C67.1778 11.0461 67.382 11.0461 67.585 11.0629L64.6388 8.77902L65.287 7.93935L68.2332 10.2233C68.1857 10.0961 68.1477 9.9656 68.1196 9.83282C68.0874 9.6946 68.0649 9.55432 68.0522 9.41298C68.0522 9.27443 68.0186 9.1149 68.0059 8.94696L67.9091 7.68745L69.0329 7.64127Z" fill="#FFCD1E"/>
<path d="M75.8935 26.1558L76.9541 24.4093L76.71 23.8845L75.1695 24.5982L74.7487 23.725L79.3785 21.5838L80.1445 23.2212C80.7001 24.4135 80.3086 25.2658 79.4164 25.6814C79.0922 25.8375 78.7264 25.8859 78.3726 25.8194C78.0188 25.7529 77.6958 25.5751 77.4508 25.312L76.3817 27.218L75.8935 26.1558ZM77.5771 23.4773L77.9979 24.3505C78.0334 24.4482 78.0882 24.5378 78.159 24.614C78.2298 24.6902 78.3153 24.7514 78.4102 24.7941C78.5052 24.8368 78.6078 24.86 78.712 24.8624C78.8161 24.8648 78.9196 24.8464 79.0165 24.8082C79.1114 24.7624 79.1955 24.6971 79.2633 24.6166C79.331 24.536 79.3809 24.4421 79.4095 24.3409C79.4382 24.2397 79.445 24.1336 79.4295 24.0296C79.414 23.9256 79.3765 23.8261 79.3195 23.7376L78.8987 22.8643L77.5771 23.4773Z" fill="white"/>
<path d="M80.9651 34.2758C80.453 34.3877 79.9191 34.346 79.4307 34.1559C78.9423 33.9658 78.5213 33.6357 78.2206 33.2073C77.92 32.7789 77.7531 32.2713 77.7412 31.7485C77.7292 31.2257 77.8726 30.711 78.1534 30.2694C78.4341 29.8277 78.8396 29.4789 79.3188 29.2667C79.798 29.0545 80.3294 28.9886 80.8461 29.0771C81.3628 29.1657 81.8416 29.4048 82.2223 29.7644C82.603 30.1239 82.8685 30.5878 82.9853 31.0976C83.1397 31.7863 83.0136 32.5079 82.6348 33.1039C82.256 33.6998 81.6554 34.1214 80.9651 34.2758V34.2758ZM80.7504 33.3353C81.0735 33.2582 81.3666 33.0875 81.5926 32.8446C81.8187 32.6018 81.9676 32.2976 82.0208 31.9705C82.0739 31.6433 82.0287 31.3078 81.8911 31.0062C81.7534 30.7046 81.5294 30.4503 81.2471 30.2755C80.9649 30.1006 80.6371 30.0129 80.305 30.0235C79.973 30.0341 79.6514 30.1425 79.381 30.335C79.1105 30.5275 78.9032 30.7955 78.7852 31.1052C78.6671 31.415 78.6435 31.7527 78.7175 32.0758C78.7661 32.293 78.8575 32.4984 78.9863 32.68C79.1152 32.8617 79.2789 33.0159 79.4681 33.1339C79.6572 33.2519 79.868 33.3312 80.0881 33.3672C80.3083 33.4032 80.5334 33.3952 80.7504 33.3437V33.3353Z" fill="white"/>
<path d="M80.1696 41.6186L79.2941 42.0006C78.8942 41.5503 78.6675 40.9731 78.6544 40.3716C78.6489 40.0215 78.7125 39.6738 78.8417 39.3482C78.9709 39.0227 79.1632 38.7257 79.4074 38.4742C79.6517 38.2228 79.9432 38.0218 80.2654 37.8827C80.5875 37.7436 80.934 37.6692 81.285 37.6637C81.6359 37.6582 81.9846 37.7217 82.311 37.8506C82.6373 37.9794 82.9351 38.1712 83.1872 38.4149C83.4392 38.6585 83.6407 38.9493 83.7802 39.2707C83.9196 39.592 83.9942 39.9376 83.9997 40.2877C84.0088 40.8878 83.8028 41.4714 83.4189 41.9334L82.5308 41.5808C82.8565 41.2428 83.0351 40.79 83.0274 40.3213C83.011 40.0491 82.9284 39.785 82.7867 39.5518C82.645 39.3186 82.4485 39.1234 82.2142 38.9829C81.9799 38.8425 81.7148 38.761 81.4419 38.7457C81.169 38.7303 80.8964 38.7814 80.6477 38.8947C80.3991 39.0079 80.1818 39.1799 80.0147 39.3956C79.8475 39.6114 79.7356 39.8645 79.6885 40.1331C79.6414 40.4017 79.6607 40.6777 79.7445 40.9373C79.8283 41.1968 79.9742 41.4321 80.1696 41.6228V41.6186Z" fill="white"/>
<path d="M77.6653 49.0833L77.9052 47.8867L80.4642 46.4467L78.2756 46.0269L78.465 45.0822L83.4694 46.0688L83.28 47.0135L81.2092 46.5936L82.9349 48.76L82.695 49.9523L80.7252 47.3577L77.6653 49.0833Z" fill="white"/>
<path d="M80.2115 54.3354L79.1972 53.9156L78.5111 55.595L77.6146 55.2297L78.2965 53.5504L77.2863 53.1305L76.4445 55.1331L75.5438 54.7679L76.7265 51.871L81.4532 53.7939L80.2662 56.6907L79.3697 56.3255L80.2115 54.3354Z" fill="white"/>
<path d="M76.4826 63.2696L75.6829 62.7322L76.4027 61.6196L72.9303 59.3861L73.4522 58.58L76.9246 60.8135L77.6485 59.701L78.465 60.2257L76.4826 63.2696Z" fill="white"/>
<path d="M68.6792 66.7963C68.0184 66.1665 67.9763 65.1631 68.9065 64.1975C69.1667 63.9148 69.4828 63.689 69.8348 63.5343C70.1869 63.3797 70.5673 63.2996 70.952 63.299L71.2298 64.2352C70.9279 64.2266 70.6273 64.2795 70.3465 64.3907C70.0657 64.5019 69.8106 64.669 69.5968 64.8818C69.1338 65.3646 69.0454 65.8138 69.3021 66.0615C69.5589 66.3092 69.9419 66.1707 70.4722 65.7635C71.6297 64.8776 72.362 64.8986 72.9176 65.4318C73.4732 65.965 73.5952 67.0272 72.7198 67.9508C72.2864 68.4161 71.702 68.7136 71.0699 68.7905L70.75 67.9214C71.2305 67.8611 71.676 67.6389 72.0127 67.2917C72.3704 66.9222 72.5767 66.4982 72.2821 66.2127C71.9874 65.9272 71.7349 66.0951 71.1372 66.536C70.2576 67.1699 69.4663 67.552 68.6792 66.7963Z" fill="white"/>
<path d="M66.8022 71.6578L66.1709 70.7678L64.6935 71.809L64.1338 71.0197L65.6111 69.9785L64.9798 69.0884L63.2036 70.3479L62.6438 69.5544L65.207 67.7491L68.1533 71.9013L65.59 73.7108L65.0303 72.9173L66.8022 71.6578Z" fill="white"/>
<path d="M57.353 73.3414L59.3102 72.4723L59.2597 71.4353L60.253 71.0155L60.4087 76.5196L59.609 76.8722L55.6232 73.0643L56.6123 72.6445L57.353 73.3414ZM58.0854 74.0761L59.4659 75.4532L59.3649 73.5093L58.0854 74.0761Z" fill="white"/>
<path d="M51.2964 79.4334L51.0691 78.4888L52.3612 78.1823L51.4058 74.1728L52.3444 73.9503L53.2998 77.9598L54.592 77.6533L54.8192 78.5937L51.2964 79.4334Z" fill="white"/>
</g>
<defs>
<filter id="filter0_d_61385:227" x="0" y="0" width="88" height="88.0001" filterUnits="userSpaceOnUse" color-interpolation-filters="sRGB">
<feFlood flood-opacity="0" result="BackgroundImageFix"/>
<feColorMatrix in="SourceAlpha" type="matrix" values="0 0 0 0 0 0 0 0 0 0 0 0 0 0 0 0 0 0 127 0" result="hardAlpha"/>
<feOffset dy="4"/>
<feGaussianBlur stdDeviation="2"/>
<feComposite in2="hardAlpha" operator="out"/>
<feColorMatrix type="matrix" values="0 0 0 0 0 0 0 0 0 0 0 0 0 0 0 0 0 0 0.25 0"/>
<feBlend mode="normal" in2="BackgroundImageFix" result="effect1_dropShadow_61385:227"/>
<feBlend mode="normal" in="SourceGraphic" in2="effect1_dropShadow_61385:227" result="shape"/>
</filter>
</defs>
</svg>
